<svg xmlns="http://www.w3.org/2000/svg" id="Layer_1" data-name="Layer 1" viewBox="300 300 600 600">
  <!-- White background with a black outline for high menubar visibility -->
  <circle cx="740" cy="687.94" r="114.79" fill="#fff" stroke="#000" stroke-width="14"/>
  <!-- Central element as solid black -->
  <path d="M 480 527 c 14.64 -27.79 13.56 -57.04 32.19 -84.31 c 43.32 -63.42 135.89 -61.22 177.62 2.56 c 19.63 34.64 14.54 68.02 43.41 101.37 c 9.03 10.43 20.39 18.09 31.42 26.35 c -32.67 -7.88 -67.15 -1.05 -94.35 18.69 c -27.2 19.74 -44.38 50.41 -47 83.92 c -1.06 -11.15 -6.31 -18.54 -10.56 -27.97 c -25.47 -56.52 -75.73 -102.61 -132.73 -120.61 Z" fill="#000"/>
  <path d="M578,662c-3.56,35.68-6.15,69.5-29.02,98.48-74.94,94.96-229.47,21.5-199.98-100.48,4.86-.57,10.13,3.03,14.49,3.1,58.05.92,116.77-.5,175.07-2.16,3.5-.1,5.88,2.33,9.95,2.15,7.07-.3,18.33-1.61,25.8-2.34,2.65-.26,4.47-6.58,3.69,1.23Z M480,527c59.95,18.06,109.53,67.48,135,124-15.9-7.46-28.02-4.03-37,11,.78-7.81-1.04-1.49-3.69-1.23-7.47.72-18.73,2.04-25.8,2.34-4.06.17-6.45-2.25-9.95-2.15-58.3,1.65-117.02,3.08-175.07,2.16-4.36-.07-9.63-3.67-14.49-3.1,20.55-85,95.52-65.64,131-133Z" fill="#000"/>
</svg>
